<?xml version="1.0" encoding="UTF-8" standalone="no"?>
<svg
   width="124.533"
   height="97.816444"
   viewBox="0 0 124.533 97.816444"
   fill="none"
   version="1.1"
   id="svg2"
   xmlns="http://www.w3.org/2000/svg"
   xmlns:svg="http://www.w3.org/2000/svg">
  <defs
     id="defs2" />
  <path
     d="m 8.753406e-7,14.654996 c 0,-2.8162 0.8468000046594,-5.5674 2.4304000246594,-7.8962 l 0.9357,-1.3761 c 3.6874,-5.42260002 10.9815001,-6.997 16.5773001,-3.5782 l 51.5356,37.1505 c 3.609,2.6017 5.748,6.7796 5.748,11.229 0,4.537 -2.224,8.786 -5.952,11.373 l -17.4002,12.071 c -3.7857,2.626 -8.9806,1.711 -11.6408,-2.051 -2.7152,-3.84 -1.7474,-9.161 2.1462,-11.798 l 11.4309,-7.744 c 1.1784,-0.799 1.1943,-2.529 0.0307,-3.3487 l -35.7499,-25.1875 c -1.3483,-0.9499 -3.2072,0.0144 -3.2072,1.6636 v 59.4256 c 0,2.735 -1.3248,5.301 -3.5549,6.884 l -8.0599001,5.722 c -2.21,1.57 -5.26990002465939,-0.011 -5.26990002465939,-2.721 z"
     fill="#a0a1a4"
     id="path1" />
  <path
     d="m 58.076101,15.326596 c -3.7624,-2.7098 -4.6373,-7.9458 -1.9603,-11.7316 2.7077,-3.82930002 8.0162,-4.7197 11.8252,-1.9834 l 50.492999,36.2729 c 3.829,2.7506 6.099,7.1766 6.099,11.8915 0,4.555 -2.121,8.852 -5.737,11.622 l -42.855999,32.832 c -3.766,2.884 -9.167,2.108 -11.968,-1.72 -2.7074,-3.7 -1.9733,-8.883 1.655,-11.686 l 38.075999,-29.414 c 1.077,-0.832 1.05,-2.4659 -0.055,-3.2613 z"
     fill="#a0a1a4"
     id="path2" />
</svg>
