<svg width="100" height="100" viewBox="0 0 100 100" fill="none" xmlns="http://www.w3.org/2000/svg">
<g clip-path="url(#clip0_19_120)">
<path fill-rule="evenodd" clip-rule="evenodd" d="M50 0C8.825 0 0 8.825 0 50C0 91.175 8.825 100 50 100C91.175 100 100 91.175 100 50C100 8.825 91.175 0 50 0ZM25 35.4093C25 34.2097 25.3607 33.0378 26.0352 32.0458L26.4338 31.4596C28.0046 29.1498 31.1116 28.4791 33.4952 29.9354L55.4478 45.7603C56.9851 46.8686 57.8961 48.6482 57.8961 50.5434C57.8961 52.4762 56.9488 54.2862 55.3607 55.388L47.9489 60.5299C47.4958 60.8443 46.9952 61.0395 46.4846 61.1222C45.9531 61.0696 45.4167 61.0338 44.8761 61.0151C44.1394 60.7931 43.4687 60.3327 42.9903 59.6563C41.8337 58.0207 42.246 55.7541 43.9045 54.6305L48.4385 51.559C49.1024 51.1092 49.1114 50.1342 48.4558 49.6723L34.9325 40.1445C33.7806 39.333 32.1923 40.1568 32.1923 41.5659V63.9597C30.1569 65.0524 28.2909 66.4184 26.6435 68.0075C26.1113 67.7273 25.5629 67.4736 25 67.2483V35.4093ZM56.4128 64.2955C60.6104 60.5714 66.0772 58.2331 72.084 58.0165L75.6031 55.3205C77.1437 54.1404 78.0471 52.3103 78.0471 50.3696C78.0471 48.3614 77.08 46.4761 75.4491 45.3044L53.9408 29.8533C52.3183 28.6877 50.0569 29.067 48.9035 30.6982C47.7632 32.3108 48.1359 34.5412 49.7386 35.6954L68.2026 48.9936C69.1462 49.6732 69.1696 51.0696 68.2494 51.7805L53.7558 62.9765C54.6707 63.3647 55.5577 63.8056 56.4128 64.2955ZM86.8319 68.5543C91.4672 72.9938 91.527 80.6133 87.2943 85.4381C80.8143 92.8245 69.3946 95 50 95C32.3343 95 21.2851 93.195 14.5586 87.2914C8.58918 82.0523 10.5575 71 18.5 71C22.0073 71 25.1773 72.4445 27.4474 74.771C31.0455 69.4773 37.1167 66 44 66C49.006 66 53.5824 67.8392 57.0904 70.8787C60.7444 66.09 66.5114 63 73 63C78.3667 63 83.2398 65.1138 86.8319 68.5543Z" fill="#a0a1a4"/>
</g>
<defs>
<clipPath id="clip0_19_120">
<rect width="100" height="100" fill="white"/>
</clipPath>
</defs>
</svg>
